<?xml version="1.0" encoding="UTF-8" standalone="no"?>
<svg width="180.622mm" height="180.622mm"
 viewBox="0 0 512 512"
 xmlns="http://www.w3.org/2000/svg" xmlns:xlink="http://www.w3.org/1999/xlink" version="1.2" baseProfile="tiny">
<title>KnowYourCode</title>
<desc>Generated with Qt</desc>
<defs>
</defs>
<g fill="none" stroke="black" stroke-width="1" fill-rule="evenodd" stroke-linecap="square" stroke-linejoin="bevel" >

<g fill="#1f2023" fill-opacity="1" stroke="none" transform="matrix(1,0,0,1,0,0)"
font-family=".AppleSystemUIFont" font-size="13" font-weight="400" font-style="normal" 
>
<path vector-effect="none" fill-rule="evenodd" d="M6,118 C6,56.1441 56.1441,6 118,6 L394,6 C455.856,6 506,56.1441 506,118 L506,394 C506,455.856 455.856,506 394,506 L118,506 C56.1441,506 6,455.856 6,394 L6,118 Z "/>
</g>

<g fill="none" stroke="#33363b" stroke-opacity="1" stroke-width="6" stroke-linecap="square" stroke-linejoin="bevel" transform="matrix(1,0,0,1,0,0)"
font-family=".AppleSystemUIFont" font-size="13" font-weight="400" font-style="normal" 
>
<path vector-effect="none" fill-rule="evenodd" d="M6,118 C6,56.1441 56.1441,6 118,6 L394,6 C455.856,6 506,56.1441 506,118 L506,394 C506,455.856 455.856,506 394,506 L118,506 C56.1441,506 6,455.856 6,394 L6,118 Z "/>
</g>

<g fill="#4c8dff" fill-opacity="1" stroke="none" transform="matrix(1,0,0,1,0,0)"
font-family=".AppleSystemUIFont" font-size="13" font-weight="400" font-style="normal" 
>
<path vector-effect="none" fill-rule="evenodd" d="M120.4,155.2 L120.427,154.212 L120.506,153.239 L120.636,152.28 L120.815,151.339 L121.043,150.415 L121.318,149.511 L121.638,148.627 L122.002,147.766 L122.409,146.928 L122.858,146.115 L123.346,145.328 L123.873,144.569 L124.437,143.839 L125.037,143.14 L125.672,142.472 L126.34,141.837 L127.039,141.237 L127.769,140.673 L128.528,140.146 L129.315,139.658 L130.128,139.209 L130.966,138.802 L131.827,138.438 L132.711,138.118 L133.615,137.843 L134.539,137.615 L135.48,137.436 L136.439,137.306 L137.412,137.227 L138.4,137.2 L373.6,137.2 L374.588,137.227 L375.561,137.306 L376.52,137.436 L377.461,137.615 L378.385,137.843 L379.289,138.118 L380.173,138.438 L381.034,138.802 L381.872,139.209 L382.685,139.658 L383.472,140.146 L384.231,140.673 L384.961,141.237 L385.66,141.837 L386.328,142.472 L386.963,143.14 L387.563,143.839 L388.127,144.569 L388.654,145.328 L389.142,146.115 L389.591,146.928 L389.998,147.766 L390.362,148.627 L390.682,149.511 L390.957,150.415 L391.185,151.339 L391.364,152.28 L391.494,153.239 L391.573,154.212 L391.6,155.2 L391.6,321.4 L120.4,321.4 L120.4,155.2 Z M120.4,334 L409.6,334 L409.6,356.8 L409.573,357.788 L409.494,358.761 L409.364,359.72 L409.185,360.661 L408.957,361.585 L408.682,362.489 L408.362,363.373 L407.998,364.234 L407.591,365.072 L407.142,365.885 L406.654,366.672 L406.127,367.431 L405.563,368.161 L404.963,368.86 L404.328,369.528 L403.66,370.163 L402.961,370.763 L402.231,371.327 L401.472,371.854 L400.685,372.342 L399.872,372.791 L399.034,373.198 L398.173,373.562 L397.289,373.882 L396.385,374.157 L395.461,374.385 L394.52,374.564 L393.561,374.694 L392.588,374.773 L391.6,374.8 L120.4,374.8 L119.412,374.773 L118.439,374.694 L117.48,374.564 L116.539,374.385 L115.615,374.157 L114.711,373.882 L113.827,373.562 L112.966,373.198 L112.128,372.791 L111.315,372.342 L110.528,371.854 L109.769,371.327 L109.039,370.763 L108.34,370.163 L107.672,369.528 L107.037,368.86 L106.437,368.161 L105.873,367.431 L105.346,366.672 L104.858,365.885 L104.409,365.072 L104.002,364.234 L103.638,363.373 L103.318,362.489 L103.043,361.585 L102.815,360.661 L102.636,359.72 L102.506,358.761 L102.427,357.788 L102.4,356.8 L102.4,334 L120.4,334 Z M213.445,194.868 L175.799,229 L213.445,263.132 L213.948,263.625 L214.404,264.147 L214.814,264.695 L215.177,265.266 L215.494,265.859 L215.763,266.469 L215.985,267.094 L216.16,267.731 L216.287,268.378 L216.367,269.032 L216.399,269.689 L216.384,270.347 L216.32,271.003 L216.208,271.655 L216.048,272.299 L215.84,272.932 L215.583,273.552 L215.278,274.157 L214.923,274.742 L214.52,275.306 L214.068,275.845 L213.575,276.348 L213.053,276.804 L212.505,277.214 L211.934,277.577 L211.341,277.894 L210.731,278.163 L210.106,278.385 L209.469,278.56 L208.822,278.687 L208.168,278.767 L207.511,278.799 L206.853,278.784 L206.197,278.72 L205.545,278.608 L204.901,278.448 L204.268,278.24 L203.648,277.983 L203.043,277.678 L202.458,277.323 L201.894,276.92 L201.355,276.468 L156.355,235.668 L155.831,235.152 L155.351,234.596 L154.916,234.001 L154.531,233.371 L154.197,232.708 L153.917,232.015 L153.695,231.295 L153.533,230.55 L153.434,229.785 L153.4,229 L153.434,228.215 L153.533,227.45 L153.695,226.705 L153.917,225.985 L154.197,225.292 L154.531,224.629 L154.916,223.999 L155.351,223.404 L155.831,222.848 L156.355,222.332 L156.355,222.332 L201.355,181.532 L201.894,181.08 L202.458,180.677 L203.043,180.322 L203.648,180.017 L204.268,179.76 L204.901,179.552 L205.545,179.392 L206.197,179.28 L206.853,179.216 L207.511,179.201 L208.168,179.233 L208.822,179.313 L209.469,179.44 L210.106,179.615 L210.731,179.837 L211.341,180.106 L211.934,180.423 L212.505,180.786 L213.053,181.196 L213.575,181.652 L214.068,182.155 L214.52,182.694 L214.923,183.258 L215.278,183.843 L215.583,184.448 L215.84,185.068 L216.048,185.701 L216.208,186.345 L216.32,186.997 L216.384,187.653 L216.399,188.311 L216.367,188.968 L216.287,189.622 L216.16,190.269 L215.985,190.906 L215.763,191.531 L215.494,192.141 L215.177,192.734 L214.814,193.305 L214.404,193.853 L213.948,194.375 L213.445,194.868 Z M286.721,170.098 L246.521,288.298 L246.222,289.062 L245.863,289.783 L245.446,290.46 L244.976,291.09 L244.458,291.672 L243.895,292.203 L243.291,292.682 L242.65,293.106 L241.976,293.474 L241.273,293.784 L240.546,294.033 L239.798,294.22 L239.034,294.343 L238.257,294.399 L237.471,294.387 L236.68,294.304 L235.889,294.15 L235.102,293.921 L234.338,293.622 L233.617,293.263 L232.94,292.846 L232.31,292.376 L231.728,291.858 L231.197,291.295 L230.718,290.691 L230.294,290.05 L229.926,289.376 L229.616,288.673 L229.367,287.946 L229.18,287.198 L229.057,286.434 L229.001,285.657 L229.013,284.871 L229.096,284.08 L229.25,283.289 L229.479,282.502 L269.679,164.302 L269.978,163.538 L270.337,162.817 L270.754,162.14 L271.224,161.51 L271.742,160.928 L272.305,160.397 L272.909,159.918 L273.55,159.494 L274.224,159.126 L274.927,158.816 L275.654,158.567 L276.402,158.38 L277.166,158.257 L277.943,158.201 L278.729,158.213 L279.52,158.296 L280.311,158.45 L281.098,158.679 L281.862,158.978 L282.583,159.337 L283.26,159.754 L283.89,160.224 L284.472,160.742 L285.003,161.305 L285.482,161.909 L285.906,162.55 L286.274,163.224 L286.584,163.927 L286.833,164.654 L287.02,165.402 L287.143,166.166 L287.199,166.943 L287.187,167.729 L287.104,168.52 L286.95,169.311 L286.721,170.098 Z M316.645,181.532 L361.645,222.332 L362.169,222.848 L362.649,223.404 L363.084,223.999 L363.469,224.629 L363.803,225.292 L364.083,225.985 L364.305,226.705 L364.467,227.45 L364.566,228.215 L364.6,229 L364.566,229.785 L364.467,230.55 L364.305,231.295 L364.083,232.015 L363.803,232.708 L363.469,233.371 L363.084,234.001 L362.649,234.596 L362.169,235.152 L361.645,235.668 L361.645,235.668 L316.645,276.468 L316.106,276.92 L315.542,277.323 L314.957,277.678 L314.352,277.983 L313.732,278.24 L313.099,278.448 L312.455,278.608 L311.803,278.72 L311.147,278.784 L310.489,278.799 L309.832,278.767 L309.178,278.687 L308.531,278.56 L307.894,278.385 L307.269,278.163 L306.659,277.894 L306.066,277.577 L305.495,277.214 L304.947,276.804 L304.425,276.348 L303.932,275.845 L303.48,275.306 L303.077,274.742 L302.722,274.157 L302.417,273.552 L302.16,272.932 L301.952,272.299 L301.792,271.655 L301.68,271.003 L301.616,270.347 L301.601,269.689 L301.633,269.032 L301.713,268.378 L301.84,267.731 L302.015,267.094 L302.237,266.469 L302.506,265.859 L302.823,265.266 L303.186,264.695 L303.596,264.147 L304.052,263.625 L304.555,263.132 L342.201,229 L304.555,194.868 L304.052,194.375 L303.596,193.853 L303.186,193.305 L302.823,192.734 L302.506,192.141 L302.237,191.531 L302.015,190.906 L301.84,190.269 L301.713,189.622 L301.633,188.968 L301.601,188.311 L301.616,187.653 L301.68,186.997 L301.792,186.345 L301.952,185.701 L302.16,185.068 L302.417,184.448 L302.722,183.843 L303.077,183.258 L303.48,182.694 L303.932,182.155 L304.425,181.652 L304.947,181.196 L305.495,180.786 L306.066,180.423 L306.659,180.106 L307.269,179.837 L307.894,179.615 L308.531,179.44 L309.178,179.313 L309.832,179.233 L310.489,179.201 L311.147,179.216 L311.803,179.28 L312.455,179.392 L313.099,179.552 L313.732,179.76 L314.352,180.017 L314.957,180.322 L315.542,180.677 L316.106,181.08 L316.645,181.532 Z "/>
</g>
</g>
</svg>
